<svg xmlns="http://www.w3.org/2000/svg" width="28" height="32" viewBox="0 0 28 32">
  <g id="Vector" fill="none">
    <path d="M28,24c-1.751,0-1.954-2-4.656-2s-2.927,2-4.672,2S16.706,22,14,22c-2.678,0-2.951,2-4.656,2-1.759,0-1.95-2-4.672-2S1.756,24,0,24V19a3,3,0,0,1,3-3H4V7H8v9h4V7h4v9h4V7h4v9h1a3,3,0,0,1,3,3Zm0,8H0V26c2.71,0,2.923-2,4.672-2s1.953,2,4.672,2c2.678,0,2.951-2,4.656-2,1.759,0,1.95,2,4.672,2s2.923-2,4.672-2C25.062,24,25.3,26,28,26ZM6,6A1.994,1.994,0,0,1,4,4C4,2.063,6,2.563,6,0c.75,0,2,1.844,2,3.5S7.109,6,6,6Zm8,0a1.994,1.994,0,0,1-2-2c0-1.937,2-1.437,2-4,.75,0,2,1.844,2,3.5S15.109,6,14,6Zm8,0a1.994,1.994,0,0,1-2-2c0-1.937,2-1.437,2-4,.75,0,2,1.844,2,3.5S23.109,6,22,6Z" stroke="none"/>
    <path d="M 26.50000381469727 30.5 L 26.50001525878906 27.31429672241211 C 25.37254333496094 27.01572036743164 24.65850067138672 26.41827583312988 24.1369686126709 25.98188018798828 C 23.64719009399414 25.57205963134766 23.52857971191406 25.5 23.34376907348633 25.5 C 23.14447975158691 25.5 23.02232933044434 25.57288932800293 22.52686882019043 25.98748016357422 C 21.80707931518555 26.58979034423828 20.71932029724121 27.5 18.67189025878906 27.5 C 16.6163501739502 27.5 15.53242969512939 26.58877944946289 14.8151798248291 25.98580932617188 C 14.31831932067871 25.56809997558594 14.20403957366943 25.5 14.00000953674316 25.5 C 13.80987930297852 25.5 13.66663932800293 25.59781074523926 13.19819927215576 25.98652076721191 C 12.47190952301025 26.58921051025391 11.37432956695557 27.5 9.343759536743164 27.5 C 7.289219379425049 27.5 6.201709747314453 26.58828926086426 5.482089519500732 25.98498916625977 C 4.990089416503906 25.57251930236816 4.868939399719238 25.5 4.671879768371582 25.5 C 4.472579479217529 25.5 4.350419521331787 25.57290077209473 3.854939460754395 25.98749923706055 C 3.335613489151001 26.42205810546875 2.624639511108398 27.01691818237305 1.499999523162842 27.31454086303711 L 1.499999523162842 30.5 L 26.50000381469727 30.5 M 18.67187881469727 22.5 C 18.86890029907227 22.5 18.99030876159668 22.42734909057617 19.48379898071289 22.01416969299316 C 20.20396995544434 21.41120910644531 21.29228019714355 20.5 23.34375 20.5 C 24.82521629333496 20.5 25.80184555053711 20.9784049987793 26.50000953674316 21.47118186950684 L 26.50001907348633 19 C 26.50001907348633 18.17289924621582 25.82711982727051 17.5 25.00001907348633 17.5 L 22.50001907348633 17.5 L 22.50001907348633 8.5 L 21.50001907348633 8.5 L 21.50001907348633 17.5 L 14.50001907348633 17.5 L 14.50001907348633 8.5 L 13.50001907348633 8.5 L 13.50001907348633 17.5 L 6.500019550323486 17.5 L 6.500019550323486 8.5 L 5.500019550323486 8.5 L 5.500019550323486 17.5 L 3.000019550323486 17.5 C 2.172919511795044 17.5 1.500019550323486 18.17289924621582 1.500019550323486 19 L 1.500019550323486 21.47343635559082 C 2.199986696243286 20.9797248840332 3.180326461791992 20.5 4.671889305114746 20.5 C 6.727379322052002 20.5 7.811299324035645 21.41120910644531 8.528549194335938 22.01417922973633 C 9.025439262390137 22.4318904876709 9.13971996307373 22.5 9.343759536743164 22.5 C 9.533869743347168 22.5 9.677109718322754 22.40218925476074 10.14556980133057 22.01346969604492 C 10.87187957763672 21.41077995300293 11.96948909759521 20.5 14.00000953674316 20.5 C 16.04673957824707 20.5 17.13967895507812 21.41110992431641 17.8629093170166 22.01399993896484 C 18.35873031616211 22.42733001708984 18.47968864440918 22.5 18.67187881469727 22.5 M 22 4.5 C 22.18626022338867 4.5 22.25041961669922 4.425779819488525 22.28125953674316 4.390110015869141 C 22.4182300567627 4.231669902801514 22.5 3.898920059204102 22.5 3.5 C 22.5 3.315576076507568 22.47357559204102 3.126906633377075 22.42921257019043 2.941778182983398 C 22.2337646484375 3.151077032089233 22.04009628295898 3.318425178527832 21.87621879577637 3.460030078887939 C 21.5 3.785130023956299 21.5 3.785130023956299 21.5 4 C 21.5 4.280370235443115 21.71962928771973 4.5 22 4.5 M 14 4.5 C 14.18625926971436 4.5 14.25041961669922 4.425779819488525 14.28125953674316 4.390110015869141 C 14.41822910308838 4.231669902801514 14.5 3.898920059204102 14.5 3.5 C 14.5 3.315576076507568 14.4735746383667 3.126906633377075 14.42921352386475 2.941778182983398 C 14.2337646484375 3.151077032089233 14.04009628295898 3.318425178527832 13.87621974945068 3.460030078887939 C 13.5 3.785130023956299 13.5 3.785130023956299 13.5 4 C 13.5 4.280370235443115 13.71962928771973 4.5 14 4.5 M 5.999999523162842 4.5 C 6.186259746551514 4.5 6.250419616699219 4.425779819488525 6.281259536743164 4.390110015869141 C 6.418229579925537 4.231669902801514 6.499999523162842 3.898920059204102 6.499999523162842 3.5 C 6.499999523162842 3.315576076507568 6.473575115203857 3.126906633377075 6.429213523864746 2.941778182983398 C 6.233765125274658 3.151077032089233 6.040096759796143 3.318425178527832 5.876219749450684 3.460030078887939 C 5.499999523162842 3.785130023956299 5.499999523162842 3.785130023956299 5.499999523162842 4 C 5.499999523162842 4.280370235443115 5.719629764556885 4.5 5.999999523162842 4.5 M 28 32 L -4.632568391116365e-07 32 L -4.632568391116365e-07 26 C 2.709749460220337 26 2.922939538955688 24 4.671879768371582 24 C 6.418819427490234 24 6.625189304351807 26 9.343759536743164 26 C 12.02144908905029 26 12.29481983184814 24 14.00000953674316 24 C 15.75925922393799 24 15.95006942749023 26 18.67189025878906 26 C 21.38169860839844 26 21.59482955932617 24 23.34376907348633 24 C 25.06176948547363 24 25.29701995849609 26 28.00001907348633 26 L 28 32 Z M 28 24 C 26.24874877929688 24 26.04624938964844 22 23.34375 22 C 20.62936973571777 22 20.41718864440918 24 18.67187881469727 24 C 16.94093894958496 24 16.70600891113281 22 14.00000953674316 22 C 11.32238960266113 22 11.04887962341309 24 9.343759536743164 24 C 7.584509372711182 24 7.39363956451416 22 4.671889305114746 22 C 1.950199484825134 22 1.7560795545578 24 1.953674291144125e-05 24 L 1.953674291144125e-05 19 C 1.953674291144125e-05 17.34375 1.343769550323486 16 3.000019550323486 16 L 4.000019550323486 16 L 4.000019550323486 7 L 8.000019073486328 7 L 8.000019073486328 16 L 12.00001907348633 16 L 12.00001907348633 7 L 16.00001907348633 7 L 16.00001907348633 16 L 20.00001907348633 16 L 20.00001907348633 7 L 24.00001907348633 7 L 24.00001907348633 16 L 25.00001907348633 16 C 26.65626907348633 16 28.00001907348633 17.34375 28.00001907348633 19 L 28 24 Z M 22 6 C 20.89062881469727 6 20 5.109379768371582 20 4 C 20 2.0625 22 2.5625 22 0 C 22.75 0 24 1.84375 24 3.5 C 24 5.15625 23.10937881469727 6 22 6 Z M 14 6 C 12.89062976837158 6 12 5.109379768371582 12 4 C 12 2.0625 14 2.5625 14 0 C 14.75 0 16 1.84375 16 3.5 C 16 5.15625 15.10937976837158 6 14 6 Z M 5.999999523162842 6 C 4.890629768371582 6 3.999999523162842 5.109379768371582 3.999999523162842 4 C 3.999999523162842 2.0625 5.999999523162842 2.5625 5.999999523162842 0 C 6.749999523162842 0 7.999999523162842 1.84375 7.999999523162842 3.5 C 7.999999523162842 5.15625 7.109379768371582 6 5.999999523162842 6 Z" stroke="none" fill="#262e36"/>
  </g>
</svg>
