<svg id="_86" data-name="86" xmlns="http://www.w3.org/2000/svg" width="10.386" height="14.678" viewBox="0 0 10.386 14.678">
  <path id="Vector" d="M7.971,13.914l-1.652.67a1.267,1.267,0,0,1-1.652-.7l-.5-1.229a1.278,1.278,0,0,1,.7-1.66l1.828-.742a19.18,19.18,0,0,0-.95-3.161,19.992,19.992,0,0,0-1.66-3.272L2.257,4.56a1.273,1.273,0,0,1-1.66-.7l-.5-1.229A1.273,1.273,0,0,1,.8.968L2.448.3,2.48.281A3.8,3.8,0,0,1,7.237,1.934a33.915,33.915,0,0,1,1.8,3.8,32.276,32.276,0,0,1,1.213,3.632A3.819,3.819,0,0,1,8,13.89Z" transform="translate(10.386 14.678) rotate(180)" fill="#fff"/>
</svg>
