<svg xmlns="http://www.w3.org/2000/svg" width="11.307" height="11.307" viewBox="0 0 11.307 11.307">
  <path id="Icon_metro-cross" data-name="Icon metro-cross" d="M13.775,11.012h0l-3.43-3.43,3.43-3.43h0a.354.354,0,0,0,0-.5l-1.62-1.62a.354.354,0,0,0-.5,0h0l-3.43,3.43-3.43-3.43h0a.354.354,0,0,0-.5,0l-1.62,1.62a.354.354,0,0,0,0,.5h0L6.1,7.582l-3.43,3.43h0a.354.354,0,0,0,0,.5l1.62,1.62a.354.354,0,0,0,.5,0h0L8.224,9.7l3.43,3.43h0a.354.354,0,0,0,.5,0l1.62-1.62a.354.354,0,0,0,0-.5Z" transform="translate(-2.571 -1.928)" fill="#f79a39"/>
</svg>
