<svg xmlns="http://www.w3.org/2000/svg" width="21.947" height="15.363" viewBox="0 0 21.947 15.363">
  <path id="Icon_awesome-money-check" data-name="Icon awesome-money-check" d="M0,16.516a1.1,1.1,0,0,0,1.1,1.1H20.85a1.1,1.1,0,0,0,1.1-1.1V5.542H0ZM15.363,9.383a.549.549,0,0,1,.549-.549H19.2a.549.549,0,0,1,.549.549v1.1a.549.549,0,0,1-.549.549H15.912a.549.549,0,0,1-.549-.549Zm0,4.115a.274.274,0,0,1,.274-.274h3.841a.274.274,0,0,1,.274.274v.549a.274.274,0,0,1-.274.274H15.638a.274.274,0,0,1-.274-.274ZM2.195,10.206a.274.274,0,0,1,.274-.274H12.894a.274.274,0,0,1,.274.274v.549a.274.274,0,0,1-.274.274H2.469a.274.274,0,0,1-.274-.274Zm0,3.292a.274.274,0,0,1,.274-.274H8.5a.274.274,0,0,1,.274.274v.549a.274.274,0,0,1-.274.274H2.469a.274.274,0,0,1-.274-.274ZM21.4,2.25H.549A.549.549,0,0,0,0,2.8V4.445H21.947V2.8A.549.549,0,0,0,21.4,2.25Z" transform="translate(0 -2.25)" fill="#f79a39"/>
</svg>
