<svg xmlns="http://www.w3.org/2000/svg" width="32.049" height="21.307" viewBox="0 0 32.049 21.307">
  <path id="Icon_awesome-money-bill-wave-alt" data-name="Icon awesome-money-bill-wave-alt" d="M31.105,3.318A15.518,15.518,0,0,0,25.276,2.25c-6.168,0-12.335,2.965-18.5,2.965a15.938,15.938,0,0,1-4.64-.653,1.8,1.8,0,0,0-.518-.077A1.557,1.557,0,0,0,0,6V21.087a1.51,1.51,0,0,0,.943,1.4,15.509,15.509,0,0,0,5.829,1.069c6.168,0,12.336-2.965,18.5-2.965a15.938,15.938,0,0,1,4.64.653,1.8,1.8,0,0,0,.518.077,1.557,1.557,0,0,0,1.615-1.513V4.72A1.512,1.512,0,0,0,31.105,3.318ZM16.024,17.469A4.313,4.313,0,0,1,12.018,12.9a4.313,4.313,0,0,1,4.006-4.566A4.313,4.313,0,0,1,20.03,12.9,4.314,4.314,0,0,1,16.024,17.469Z" transform="translate(0 -2.25)" fill="#f79a39"/>
</svg>
