<svg xmlns="http://www.w3.org/2000/svg" width="24" height="21.333" viewBox="0 0 24 21.333">
  <path id="Vector" d="M24,.5V3.792a.5.5,0,0,1-.5.5.489.489,0,0,1-.35-.146l-.7-.7L20.412,5.471a6,6,0,0,1-8.8,7.908A7.281,7.281,0,0,0,12.954,11a3.333,3.333,0,1,0,0-4.667,7.357,7.357,0,0,0-1.337-2.379,6.007,6.007,0,0,1,6.913-.367l2.029-2.029-.7-.7A.5.5,0,0,1,20.208,0H23.5a.5.5,0,0,1,.5.5ZM12,8.667a6,6,0,0,1-4.667,5.85v2.15h1.5a.5.5,0,0,1,.5.5v1.667a.5.5,0,0,1-.5.5h-1.5v1.5a.5.5,0,0,1-.5.5H5.167a.5.5,0,0,1-.5-.5v-1.5h-1.5a.5.5,0,0,1-.5-.5V17.167a.5.5,0,0,1,.5-.5h1.5v-2.15A6,6,0,1,1,12,8.667Zm-2.667,0A3.333,3.333,0,1,0,6,12,3.338,3.338,0,0,0,9.333,8.667Z" transform="translate(0)" fill="#262e36"/>
</svg>
