<svg xmlns="http://www.w3.org/2000/svg" width="25.005" height="21.88" viewBox="0 0 25.005 21.88">
  <path id="Icon_awesome-gift" data-name="Icon awesome-gift" d="M1.563,22.567A1.561,1.561,0,0,0,3.126,24.13H10.94V16.315H1.563Zm12.5,1.563H21.88a1.561,1.561,0,0,0,1.563-1.563V16.315H14.065ZM23.442,8.5H21.386a4.258,4.258,0,0,0,.493-1.954,4.3,4.3,0,0,0-4.3-4.3c-2.032,0-3.345,1.04-5.03,3.336-1.685-2.3-3-3.336-5.03-3.336a4.3,4.3,0,0,0-4.3,4.3A4.2,4.2,0,0,0,3.717,8.5H1.563A1.561,1.561,0,0,0,0,10.064v3.907a.784.784,0,0,0,.781.781H24.224a.784.784,0,0,0,.781-.781V10.064A1.561,1.561,0,0,0,23.442,8.5ZM7.516,8.5a1.954,1.954,0,1,1,0-3.907c.972,0,1.69.161,4.2,3.907h-4.2Zm10.066,0h-4.2c2.51-3.736,3.209-3.907,4.2-3.907a1.954,1.954,0,0,1,0,3.907Z" transform="translate(0 -2.25)" fill="#262e36"/>
</svg>
