<svg xmlns="http://www.w3.org/2000/svg" width="30.305" height="26.516" viewBox="0 0 30.305 26.516">
  <path id="Icon_awesome-camera" data-name="Icon awesome-camera" d="M30.3,8.879V25.925a2.842,2.842,0,0,1-2.841,2.841H2.841A2.842,2.842,0,0,1,0,25.925V8.879A2.842,2.842,0,0,1,2.841,6.038H8.05l.728-1.947A2.837,2.837,0,0,1,11.435,2.25h7.428a2.837,2.837,0,0,1,2.658,1.841l.734,1.947h5.209A2.842,2.842,0,0,1,30.3,8.879ZM22.255,17.4a7.1,7.1,0,1,0-7.1,7.1A7.108,7.108,0,0,0,22.255,17.4Zm-1.894,0a5.209,5.209,0,1,1-5.209-5.209A5.216,5.216,0,0,1,20.361,17.4Z" transform="translate(0 -2.25)" fill="#fff"/>
</svg>
