<svg xmlns="http://www.w3.org/2000/svg" width="22.919" height="17.29" viewBox="0 0 22.919 17.29">
  <g id="Group_120" data-name="Group 120" transform="translate(-36.206 -448.769)">
    <path id="Vector" d="M11.822-.854c2.629-.788,4.067-2.891,3.325-4.907A29.068,29.068,0,0,0,13.355-9.7a33.651,33.651,0,0,0-2.664-4.12c-1.368-1.817-4.4-2.57-7.027-1.792l-.047.017-2.44.727c-.967.286-1.427,1.09-1.038,1.8l.743,1.333a2.161,2.161,0,0,0,2.452.762l2.7-.8A20.326,20.326,0,0,1,8.485-8.228,16.913,16.913,0,0,1,9.888-4.8l-2.7.8C6.222-3.7,5.762-2.9,6.151-2.2L6.894-.863A2.149,2.149,0,0,0,9.334-.1l2.44-.727Z" transform="translate(52.161 449.426) rotate(180)" fill="none" stroke="#88b0fd" stroke-linecap="round" stroke-linejoin="round" stroke-width="1.2"/>
    <path id="Vector-2" data-name="Vector" d="M55.645,456.413,50.7,455.027l.762-4.549" fill="none" stroke="#88b0fd" stroke-linecap="round" stroke-linejoin="round" stroke-width="1.2"/>
    <path id="Vector-3" data-name="Vector" d="M50.7,455.027l7.608-4.217" fill="none" stroke="#88b0fd" stroke-linecap="round" stroke-linejoin="round" stroke-width="1.2"/>
  </g>
</svg>
