<svg xmlns="http://www.w3.org/2000/svg" width="18" height="18" viewBox="0 0 18 18">
  <path id="Vector" d="M6.366,7.682a10.556,10.556,0,0,0,3.952,3.952L11.2,10.4a1,1,0,0,1,1.293-.3,11.421,11.421,0,0,0,4.583,1.364,1,1,0,0,1,.921,1v4.463a1,1,0,0,1-.9.995A15.658,15.658,0,0,1,15.5,18,15.5,15.5,0,0,1,0,2.5,15.667,15.667,0,0,1,.082.9,1,1,0,0,1,1.077,0H5.539a1,1,0,0,1,1,.921A11.421,11.421,0,0,0,7.9,5.5,1,1,0,0,1,7.6,6.8ZM3.844,7.025l1.9-1.357A13.409,13.409,0,0,1,4.647,2H2.009Q2,2.249,2,2.5A13.5,13.5,0,0,0,15.5,16q.25,0,.5-.009V13.353a13.411,13.411,0,0,1-3.668-1.1l-1.357,1.9a12.45,12.45,0,0,1-1.587-.75l-.058-.033a12.556,12.556,0,0,1-4.7-4.7l-.033-.058a12.441,12.441,0,0,1-.75-1.587Z" fill="#262e36"/>
</svg>
