<svg xmlns="http://www.w3.org/2000/svg" width="6.744" height="6.744" viewBox="0 0 6.744 6.744">
  <path id="Icon_ionic-ios-person" data-name="Icon ionic-ios-person" d="M11.241,11.074c-.126-.558-.848-.831-1.1-.919a8.183,8.183,0,0,0-.915-.176.93.93,0,0,1-.423-.195,3.7,3.7,0,0,1-.028-.866,2.6,2.6,0,0,0,.2-.381,4.916,4.916,0,0,0,.148-.666s.144,0,.195-.253a2.488,2.488,0,0,0,.13-.588c-.011-.2-.121-.2-.121-.2a3.079,3.079,0,0,0,.119-.9A1.447,1.447,0,0,0,7.874,4.5,1.441,1.441,0,0,0,6.3,5.933a3.212,3.212,0,0,0,.118.9s-.111-.005-.121.2a2.488,2.488,0,0,0,.13.588c.049.253.195.253.195.253a4.916,4.916,0,0,0,.148.666,2.6,2.6,0,0,0,.2.381,3.7,3.7,0,0,1-.028.866.93.93,0,0,1-.423.195,8.183,8.183,0,0,0-.915.176c-.249.088-.971.36-1.1.919a.14.14,0,0,0,.139.17H11.1A.14.14,0,0,0,11.241,11.074Z" transform="translate(-4.501 -4.5)"/>
</svg>
