<svg xmlns="http://www.w3.org/2000/svg" width="37.853" height="33.121" viewBox="0 0 37.853 33.121">
  <path id="Icon_awesome-wallet" data-name="Icon awesome-wallet" d="M34.1,9.347H5.914a1.183,1.183,0,1,1,0-2.366H34.3A1.183,1.183,0,0,0,35.487,5.8,3.549,3.549,0,0,0,31.938,2.25H4.732A4.731,4.731,0,0,0,0,6.982V30.64a4.731,4.731,0,0,0,4.732,4.732H34.1a3.66,3.66,0,0,0,3.756-3.549V12.9A3.66,3.66,0,0,0,34.1,9.347ZM30.755,24.725a2.366,2.366,0,1,1,2.366-2.366A2.366,2.366,0,0,1,30.755,24.725Z" transform="translate(0 -2.25)" fill="#fff"/>
</svg>
