<svg xmlns="http://www.w3.org/2000/svg" xmlns:xlink="http://www.w3.org/1999/xlink" width="20.621" height="20.621" viewBox="0 0 20.621 20.621">
  <defs>
    <filter id="Icon_awesome-coins">
      <feOffset dy="3" input="SourceAlpha"/>
      <feGaussianBlur stdDeviation="3" result="blur"/>
      <feFlood flood-color="#fff" flood-opacity="0.161" result="color"/>
      <feComposite operator="out" in="SourceGraphic" in2="blur"/>
      <feComposite operator="in" in="color"/>
      <feComposite operator="in" in2="SourceGraphic"/>
    </filter>
  </defs>
  <g data-type="innerShadowGroup">
    <path id="Icon_awesome-coins-2" data-name="Icon awesome-coins" d="M0,16.323v1.72c0,1.422,3.464,2.578,7.733,2.578s7.733-1.156,7.733-2.578v-1.72c-1.663,1.172-4.7,1.72-7.733,1.72S1.663,17.5,0,16.323ZM12.888,5.155c4.269,0,7.733-1.156,7.733-2.578S17.157,0,12.888,0,5.155,1.156,5.155,2.578,8.619,5.155,12.888,5.155ZM0,12.1v2.078c0,1.422,3.464,2.578,7.733,2.578s7.733-1.156,7.733-2.578V12.1c-1.663,1.369-4.708,2.078-7.733,2.078S1.663,13.468,0,12.1Zm16.754.443c2.308-.447,3.866-1.277,3.866-2.231V8.591A9.89,9.89,0,0,1,16.754,9.98Zm-9.022-6.1C3.464,6.444,0,7.886,0,9.666s3.464,3.222,7.733,3.222,7.733-1.442,7.733-3.222S12,6.444,7.733,6.444Zm8.832,2.267c2.416-.435,4.056-1.289,4.056-2.267V4.724c-1.43,1.011-3.887,1.555-6.472,1.683A4.51,4.51,0,0,1,16.565,8.711Z" fill="#fff"/>
    <g transform="matrix(1, 0, 0, 1, 0, 0)" filter="url(#Icon_awesome-coins)">
      <path id="Icon_awesome-coins-3" data-name="Icon awesome-coins" d="M0,16.323v1.72c0,1.422,3.464,2.578,7.733,2.578s7.733-1.156,7.733-2.578v-1.72c-1.663,1.172-4.7,1.72-7.733,1.72S1.663,17.5,0,16.323ZM12.888,5.155c4.269,0,7.733-1.156,7.733-2.578S17.157,0,12.888,0,5.155,1.156,5.155,2.578,8.619,5.155,12.888,5.155ZM0,12.1v2.078c0,1.422,3.464,2.578,7.733,2.578s7.733-1.156,7.733-2.578V12.1c-1.663,1.369-4.708,2.078-7.733,2.078S1.663,13.468,0,12.1Zm16.754.443c2.308-.447,3.866-1.277,3.866-2.231V8.591A9.89,9.89,0,0,1,16.754,9.98Zm-9.022-6.1C3.464,6.444,0,7.886,0,9.666s3.464,3.222,7.733,3.222,7.733-1.442,7.733-3.222S12,6.444,7.733,6.444Zm8.832,2.267c2.416-.435,4.056-1.289,4.056-2.267V4.724c-1.43,1.011-3.887,1.555-6.472,1.683A4.51,4.51,0,0,1,16.565,8.711Z" fill="#fff"/>
    </g>
  </g>
</svg>
